<svg id="edit" xmlns="http://www.w3.org/2000/svg" width="35" height="35" viewBox="0 0 35 35">
  <g id="Grupo_23" data-name="Grupo 23" transform="translate(0 2.5)">
    <g id="Grupo_22" data-name="Grupo 22">
      <path id="Caminho_55" data-name="Caminho 55" d="M28.75,49.137a1.25,1.25,0,0,0-1.25,1.25v12.5a1.25,1.25,0,0,1-1.25,1.25H3.75a1.25,1.25,0,0,1-1.25-1.25v-25a1.25,1.25,0,0,1,1.25-1.25h15a1.25,1.25,0,1,0,0-2.5h-15A3.75,3.75,0,0,0,0,37.887v25a3.75,3.75,0,0,0,3.75,3.75h22.5A3.75,3.75,0,0,0,30,62.887v-12.5A1.25,1.25,0,0,0,28.75,49.137Z" transform="translate(0 -34.137)" fill="#fff"/>
    </g>
  </g>
  <g id="Grupo_25" data-name="Grupo 25" transform="translate(7.501 0)">
    <g id="Grupo_24" data-name="Grupo 24">
      <path id="Caminho_56" data-name="Caminho 56" d="M128.507,1.405a4.785,4.785,0,0,0-6.768,0L105.274,17.87a1.264,1.264,0,0,0-.3.489l-2.5,7.5a1.25,1.25,0,0,0,1.185,1.645,1.27,1.27,0,0,0,.395-.064l7.5-2.5a1.25,1.25,0,0,0,.489-.3L128.507,8.173A4.785,4.785,0,0,0,128.507,1.405Zm-1.768,5-16.25,16.25-4.855,1.621,1.616-4.849,16.256-16.25a2.284,2.284,0,1,1,3.233,3.227Z" transform="translate(-102.409 -0.004)" fill="#fff"/>
    </g>
  </g>
</svg>
