<svg id="exit" xmlns="http://www.w3.org/2000/svg" width="35" height="35" viewBox="0 0 35 35">
  <path id="Caminho_45" data-name="Caminho 45" d="M292.28,210.2H278.426a1.094,1.094,0,0,1,0-2.187H292.28a1.094,1.094,0,0,1,0,2.188Zm0,0" transform="translate(-258.374 -193.789)" fill="#fff"/>
  <path id="Caminho_46" data-name="Caminho 46" d="M401.1,141.1a1.094,1.094,0,0,1-.773-1.868l4.7-4.7-4.7-4.7a1.094,1.094,0,1,1,1.547-1.547l5.469,5.469a1.094,1.094,0,0,1,0,1.547l-5.469,5.469A1.086,1.086,0,0,1,401.1,141.1Zm0,0" transform="translate(-372.661 -119.223)" fill="#fff"/>
  <path id="Caminho_47" data-name="Caminho 47" d="M11.666,35.008a3.005,3.005,0,0,1-.9-.136L1.986,31.948A2.944,2.944,0,0,1,0,29.175V2.925A2.92,2.92,0,0,1,2.916.008a3.008,3.008,0,0,1,.9.136L12.6,3.068a2.943,2.943,0,0,1,1.986,2.774v26.25a2.919,2.919,0,0,1-2.916,2.917ZM2.916,2.2a.731.731,0,0,0-.729.729v26.25a.758.758,0,0,0,.506.7l8.735,2.911a.792.792,0,0,0,.238.032.731.731,0,0,0,.729-.729V5.841a.758.758,0,0,0-.506-.7L3.154,2.228A.791.791,0,0,0,2.916,2.2Zm0,0" transform="translate(0 -0.008)" fill="#fff"/>
  <path id="Caminho_48" data-name="Caminho 48" d="M47.084,11.675a1.094,1.094,0,0,1-1.094-1.094V4.019A1.825,1.825,0,0,0,44.167,2.2H27.762a1.094,1.094,0,0,1,0-2.187H44.167a4.014,4.014,0,0,1,4.01,4.011v6.562A1.094,1.094,0,0,1,47.084,11.675Zm0,0" transform="translate(-24.845 -0.008)" fill="#fff"/>
  <path id="Caminho_49" data-name="Caminho 49" d="M188.259,289.007h-5.833a1.094,1.094,0,0,1,0-2.187h5.833A1.825,1.825,0,0,0,190.082,285v-6.562a1.094,1.094,0,1,1,2.187,0V285A4.014,4.014,0,0,1,188.259,289.007Zm0,0" transform="translate(-168.937 -258.382)" fill="#fff"/>
</svg>
