<svg xmlns="http://www.w3.org/2000/svg" width="35" height="33" viewBox="0 0 35 33">
  <path id="github" d="M19.5,2C9.835,2,2,9.571,2,18.91A17.019,17.019,0,0,0,13.97,34.974c.875.135,1.155-.389,1.155-.845V31.271C10.278,32.285,9.245,29,9.245,29A4.594,4.594,0,0,0,7.3,26.519c-1.593-1.048.122-1.015.122-1.015A3.669,3.669,0,0,1,10.1,27.246c1.523,2.57,4.1,1.809,5.092,1.4a3.606,3.606,0,0,1,1.1-2.266c-3.885-.423-7.963-1.877-7.963-8.32a6.427,6.427,0,0,1,1.8-4.583,5.859,5.859,0,0,1,.175-4.464s1.47-.457,4.813,1.725a17.43,17.43,0,0,1,8.75,0c3.342-2.181,4.813-1.725,4.813-1.725a5.859,5.859,0,0,1,.175,4.464,6.427,6.427,0,0,1,1.8,4.583c0,6.459-4.095,7.88-8,8.3A3.964,3.964,0,0,1,23.875,29.5v4.633c0,.457.28,1,1.173.845A17.019,17.019,0,0,0,37,18.91C37,9.571,29.165,2,19.5,2Z" transform="translate(-2 -2)" fill="#25a1d0"/>
</svg>
