<svg id="join" xmlns="http://www.w3.org/2000/svg" width="35" height="35" viewBox="0 0 35 35">
  <path id="Caminho_50" data-name="Caminho 50" d="M14.948,210.188H1.094a1.094,1.094,0,1,1,0-2.187H14.948a1.094,1.094,0,1,1,0,2.188Zm0,0" transform="translate(0 -193.781)" fill="#fff"/>
  <path id="Caminho_51" data-name="Caminho 51" d="M123.765,141.11a1.094,1.094,0,0,1-.773-1.868l4.7-4.7-4.7-4.694a1.094,1.094,0,0,1,1.547-1.547l5.469,5.469a1.094,1.094,0,0,1,0,1.547l-5.469,5.469A1.092,1.092,0,0,1,123.765,141.11Zm0,0" transform="translate(-114.286 -119.235)" fill="#fff"/>
  <path id="Caminho_52" data-name="Caminho 52" d="M301.584,35.077a2.919,2.919,0,0,1-2.917-2.917V5.91a2.935,2.935,0,0,1,1.974-2.769L309.4.22a2.947,2.947,0,0,1,3.847,2.774v26.25a2.936,2.936,0,0,1-1.973,2.768l-8.765,2.923a3.051,3.051,0,0,1-.929.143Zm8.75-32.813a.857.857,0,0,0-.261.038l-8.725,2.909a.752.752,0,0,0-.493.7V32.16a.768.768,0,0,0,.99.691l8.725-2.909a.754.754,0,0,0,.493-.7V2.994A.73.73,0,0,0,310.334,2.265Zm0,0" transform="translate(-278.251 -0.077)" fill="#fff"/>
  <path id="Caminho_53" data-name="Caminho 53" d="M171.762,7.292A1.094,1.094,0,0,1,170.668,6.2V4.011A4.014,4.014,0,0,1,174.678,0h16.406a1.094,1.094,0,0,1,0,2.188H174.678a1.825,1.825,0,0,0-1.823,1.823V6.2A1.094,1.094,0,0,1,171.762,7.292Zm0,0" transform="translate(-159.001)" fill="#fff"/>
  <path id="Caminho_54" data-name="Caminho 54" d="M180.512,348.624h-5.834a4.014,4.014,0,0,1-4.01-4.01v-2.187a1.094,1.094,0,0,1,2.188,0v2.188a1.825,1.825,0,0,0,1.823,1.823h5.834a1.094,1.094,0,1,1,0,2.188Zm0,0" transform="translate(-159.001 -317.999)" fill="#fff"/>
</svg>
