<svg xmlns="http://www.w3.org/2000/svg" width="73" height="73" viewBox="0 0 73 73">
  <g id="send" transform="translate(-130 122)">
    <rect id="Retângulo_25" data-name="Retângulo 25" width="73" height="73" transform="translate(130 -122)" fill="none"/>
    <path id="Caminho_43" data-name="Caminho 43" d="M54.028,35.407A1.583,1.583,0,0,0,51.916,33.6L1.02,52.978a1.578,1.578,0,0,0-.006,2.95l14.3,5.508V78.784a1.585,1.585,0,0,0,3,.711l5.913-11.7L38.654,78.472a1.586,1.586,0,0,0,2.459-.808C54.587,33.6,54,35.517,54.028,35.407ZM41.465,40.959,16.671,58.572,6,54.462ZM18.48,61.166,40.091,45.814c-18.6,19.568-17.625,18.538-17.706,18.647-.12.162.21-.468-3.905,7.676ZM38.738,74.6l-12.7-9.4L49,41.029Z" transform="matrix(0.951, 0.309, -0.309, 0.951, 154.833, -149.853)" fill="#474747"/>
  </g>
</svg>
