<svg id="bin_1_" data-name="bin (1)" xmlns="http://www.w3.org/2000/svg" width="28.255" height="35" viewBox="0 0 28.255 35">
  <path id="Caminho_57" data-name="Caminho 57" d="M223.213,154.7a.817.817,0,0,0-.815.82v15.492a.815.815,0,1,0,1.629,0V155.523A.817.817,0,0,0,223.213,154.7Zm0,0" transform="translate(-204.278 -142.022)" fill="#fff"/>
  <path id="Caminho_58" data-name="Caminho 58" d="M105.213,154.7a.817.817,0,0,0-.815.82v15.492a.815.815,0,1,0,1.629,0V155.523A.817.817,0,0,0,105.213,154.7Zm0,0" transform="translate(-95.892 -142.022)" fill="#fff"/>
  <path id="Caminho_59" data-name="Caminho 59" d="M2.311,10.418V30.613a4.537,4.537,0,0,0,1.2,3.119A4,4,0,0,0,6.417,35H21.832a4,4,0,0,0,2.911-1.266,4.537,4.537,0,0,0,1.2-3.119V10.418a3.133,3.133,0,0,0-.8-6.157H20.968V3.236a3.23,3.23,0,0,0-.94-2.3A3.191,3.191,0,0,0,17.742,0H10.507a3.191,3.191,0,0,0-2.286.94,3.23,3.23,0,0,0-.94,2.3V4.261H3.109a3.133,3.133,0,0,0-.8,6.157ZM21.832,33.359H6.417A2.59,2.59,0,0,1,3.94,30.613V10.49H24.309V30.613a2.59,2.59,0,0,1-2.477,2.746ZM8.91,3.236A1.583,1.583,0,0,1,9.372,2.1a1.564,1.564,0,0,1,1.135-.459h7.235a1.564,1.564,0,0,1,1.135.459,1.582,1.582,0,0,1,.462,1.139V4.261H8.91ZM3.109,5.9h22.03a1.475,1.475,0,0,1,0,2.951H3.109a1.475,1.475,0,0,1,0-2.951Zm0,0" transform="translate(0.003 0.002)" fill="#fff"/>
  <path id="Caminho_60" data-name="Caminho 60" d="M164.213,154.7a.817.817,0,0,0-.815.82v15.492a.815.815,0,1,0,1.629,0V155.523A.817.817,0,0,0,164.213,154.7Zm0,0" transform="translate(-150.085 -142.022)" fill="#fff"/>
</svg>
